<?xml version='1.0' encoding='iso-8859-1'?>
<svg version="1.1" xmlns="http://www.w3.org/2000/svg" viewBox="0 0 295.82 295.82" xmlns:xlink="http://www.w3.org/1999/xlink" enable-background="new 0 0 295.82 295.82">
  <g>
    <g>
      <path d="m261.018,113.108c0-2.958-1.201-5.255-3.132-6.787-1.01-1.914-2.193-3.759-3.828-5.394l-93.967-93.966c-1.444-0.974-3.063-1.914-4.733-2.802-1.427-2.54-4.002-4.159-7.448-4.159-1.01,0-1.897,0.244-2.749,0.487-1.392-0.261-2.802-0.487-4.211-0.487h-62.645c-24.361,0-43.503,19.141-43.503,43.503v208.814c0,24.362 19.141,43.503 43.503,43.503h139.21c24.362,0 43.503-19.141 43.503-43.503v-132.249c0-1.688-0.122-3.358-0.348-5.011 0.139-0.643 0.348-1.235 0.348-1.949zm-27.842-8.7h-50.463c-13.921,0-26.102-12.181-26.102-26.102v-50.463l76.565,76.565zm-15.661,174.012h-139.21c-13.921,0-26.102-12.181-26.102-26.102v-208.814c0-13.921 12.181-26.102 26.102-26.102h60.904v60.904c0,24.362 19.141,43.503 43.503,43.503h60.904v130.509c0.001,13.921-12.18,26.102-26.101,26.102z"/>
      <path d="m184.453,165.312l-46.983,46.983c0,1.74-1.74,1.74-3.48,1.74 0,0-1.74,0-3.48-1.74l-19.141-19.141c-3.48-3.48-8.701-3.48-12.181,0s-3.48,8.701 0,12.181l19.141,19.141c3.48,5.22 8.701,6.96 15.661,6.96 6.96,0 12.181-3.48 15.661-6.96l46.983-46.983c3.48-3.48 3.48-8.701 0-12.181s-8.701-3.48-12.181,0z"/>
    </g>
  </g>
</svg>
