<?xml version='1.0' encoding='iso-8859-1'?>
<svg version="1.1" xmlns="http://www.w3.org/2000/svg" viewBox="0 0 213.166 213.166" xmlns:xlink="http://www.w3.org/1999/xlink" enable-background="new 0 0 213.166 213.166">
  <g>
    <g>
      <path d="m86.137,28.712h118.328c5.22,0 8.701-3.48 8.701-8.701s-3.48-8.701-8.701-8.701h-118.328c-5.22,0-8.701,3.48-8.701,8.701 0,5.221 3.48,8.701 8.701,8.701z"/>
      <path d="m204.465,98.317h-118.328c-5.22,0-8.701,3.48-8.701,8.701 0,5.22 3.48,8.701 8.701,8.701h118.328c5.22,0 8.701-3.48 8.701-8.701 0-5.22-3.481-8.701-8.701-8.701z"/>
      <path d="m204.465,185.323h-118.328c-5.22,0-8.701,3.48-8.701,8.701s3.48,8.701 8.701,8.701h118.328c5.22,0 8.701-3.48 8.701-8.701s-3.481-8.701-8.701-8.701z"/>
      <path d="m30.453,4.351l-12.181,13.921-3.48-3.48c-3.48-3.48-8.701-3.48-12.181,0s-3.48,8.701 0,12.181l6.96,6.96c3.48,1.74 6.96,3.48 10.441,3.48s6.96-1.74 6.96-5.22l15.661-15.661c3.48-3.48 3.48-8.701 0-12.181s-8.7-3.481-12.18,2.66454e-15z"/>
      <path d="m30.453,91.357l-12.181,13.921-3.48-3.48c-3.48-3.48-8.701-3.48-12.181,0s-3.48,8.701 0,12.181l6.96,6.96c3.48,1.74 6.96,3.48 10.441,3.48s6.96-1.74 6.96-5.22l15.661-15.661c3.48-3.48 3.48-8.701 0-12.181s-8.7-3.481-12.18,1.42109e-14z"/>
      <path d="m30.453,178.363l-12.181,13.921-3.48-3.48c-3.48-3.48-8.701-3.48-12.181,0s-3.48,8.701 0,12.181l6.96,6.96c3.48,1.74 6.96,3.48 10.441,3.48s6.96-1.74 6.96-5.22l15.661-15.661c3.48-3.48 3.48-8.701 0-12.181s-8.7-3.481-12.18,0z"/>
    </g>
  </g>
</svg>
