<?xml version='1.0' encoding='iso-8859-1'?>
<svg version="1.1" xmlns="http://www.w3.org/2000/svg" viewBox="0 0 293.457 293.457" xmlns:xlink="http://www.w3.org/1999/xlink" enable-background="new 0 0 293.457 293.457">
  <g>
    <path d="m272.017,72.462l-29.582-14.791v-32.193c0-15.661-17.401-29.582-33.062-24.362l-161.831,46.984c-19.142,5.22-31.322,22.622-31.322,41.763v34.802c0,19.141 12.181,36.543 31.322,41.763l9.814,2.854 28.468,117.214c1.74,3.48 5.22,6.96 8.701,6.96h1.74c5.22-1.74 8.701-5.22 6.96-10.441l-26.241-108.043 132.388,38.44c1.74,1.74 5.22,1.74 6.96,1.74 6.96,0 13.921-1.74 19.141-8.701 3.48-5.22 6.96-12.181 6.96-19.141v-33.933l29.582-14.791c3.48,0 5.22-3.48 5.22-6.96v-52.204c0.003-1.74-1.738-5.22-5.218-6.96zm-46.983,114.848c0,3.48 0,5.22-1.74,6.96-1.74,1.74-5.22,1.74-8.701,1.74l-161.831-46.983c-12.181-1.74-19.141-12.181-19.141-24.362v-34.802c0-10.441 8.701-20.882 19.141-24.362l161.831-46.983h1.74c5.22,0 8.701,3.48 8.701,8.701v160.091zm34.802-60.904l-17.401,8.701v-59.165l17.401,8.701v41.763z"/>
  </g>
</svg>
