<?xml version='1.0' encoding='iso-8859-1'?>
<svg version="1.1" xmlns="http://www.w3.org/2000/svg" viewBox="0 0 313.222 313.222" xmlns:xlink="http://www.w3.org/1999/xlink" enable-background="new 0 0 313.222 313.222">
  <g>
    <g>
      <path d="m121.808,234.916c24.362,0 43.503-19.141 43.503-43.503s-19.141-43.503-43.503-43.503-43.503,19.141-43.503,43.503 19.142,43.503 43.503,43.503zm0-69.605c13.921,0 26.102,12.181 26.102,26.102 0,13.921-12.181,26.102-26.102,26.102s-26.102-12.181-26.102-26.102c0.001-13.92 12.182-26.102 26.102-26.102z"/>
      <path d="m304.521,52.204h-226.216c-5.22,0-8.701,3.48-8.701,8.701v26.102h-26.101c-5.22,0-8.701,3.48-8.701,8.701v26.102h-26.101c-5.22,0-8.701,3.48-8.701,8.701v121.808c0,5.22 3.48,8.701 8.701,8.701h226.216c5.22,0 8.701-3.48 8.701-8.701v-26.102h26.102c5.22,0 8.701-3.48 8.701-8.701v-26.102h26.102c5.22,0 8.701-3.48 8.701-8.701v-121.809c-0.002-5.22-3.483-8.7-8.703-8.7zm-78.305,191.413h-208.815v-104.407h208.814v104.407zm34.803-34.803h-17.401v-78.305c0-5.22-3.48-8.701-8.701-8.701h-182.712v-17.401h208.814v104.407zm34.802-34.802h-17.401v-78.305c0-5.22-3.48-8.701-8.701-8.701h-182.712v-17.401h208.814v104.407z"/>
    </g>
  </g>
</svg>
